<svg width="163" height="48" viewBox="0 0 163 48" fill="none" xmlns="http://www.w3.org/2000/svg">
<mask id="mask0_439_74" style="mask-type:alpha" maskUnits="userSpaceOnUse" x="10" y="1" width="37" height="37">
	<path fill-rule="evenodd" clip-rule="evenodd" d="M27.5802 1.39803C35.235 1.31592 42.1524 5.65736 44.8024 12.5584C47.8327 20.4495 47.5862 30.0846 40.4845 35.002C33.443 39.8779 23.9883 36.8619 17.188 31.6796C11.3154 27.2043 9.15472 19.7555 11.5021 12.9156C13.8166 6.17136 20.1901 1.47731 27.5802 1.39803Z" fill="#F495AF"/>
</mask>
<g mask="url(#mask0_439_74)">
	<rect class="logo__first-shape" x="9.18359" y="0.00955963" width="38.845" height="38.845"/>
</g>
<mask id="mask1_439_74" style="mask-type:alpha" maskUnits="userSpaceOnUse" x="1" y="10" width="36" height="37">
	<path fill-rule="evenodd" clip-rule="evenodd" d="M33.4006 13.3998C38.0837 18.2702 35.7188 25.6537 33.0318 31.7285C29.9147 38.7756 26.2994 47.3196 18.7322 46.562C9.85126 45.6729 2.31062 37.7534 1.43518 28.5652C0.689398 20.7377 8.78366 16.8196 15.5907 13.5901C21.4886 10.7919 28.6943 8.50546 33.4006 13.3998Z" fill="#F5C245"/>
</mask>
<g mask="url(#mask1_439_74)">
	<rect class="logo__second-shape" y="9.15134" width="38.845" height="38.845"/>
</g>
<path class="logo__intersection" fill-rule="evenodd" clip-rule="evenodd" d="M30.4251 37.3653C25.7754 36.8708 21.0527 34.6252 17.1875 31.6796C12.1896 27.871 9.88026 21.9086 10.7501 16.0008C12.348 15.1327 14.0041 14.3427 15.5904 13.5901C21.4884 10.7919 28.6941 8.50548 33.4003 13.3999C38.0834 18.2702 35.7185 25.6538 33.0315 31.7285C32.9697 31.8683 32.9077 32.0087 32.8454 32.1496C32.0878 33.8641 31.2973 35.6533 30.4251 37.3653Z"/>
<path class="logo__letter logo__letter_1" d="M83.6728 36.7025C84.9755 36.0977 85.4873 35.0276 85.4873 34.0041C85.4873 32.5618 84.4172 31.166 82.8819 31.166C82.5562 31.166 82.2306 31.2126 81.8584 31.3521C80.6952 31.8174 79.4856 32.0035 78.3225 32.0035C74.6005 32.0035 71.2042 29.7703 71.2042 25.397C71.2042 20.6514 74.7866 18.7439 78.369 18.7439C79.5786 18.7439 80.7883 18.9765 81.8584 19.3953C82.2771 19.5348 82.6493 19.6279 82.975 19.6279C84.5568 19.6279 85.5803 18.2787 85.5803 16.8829C85.5803 15.8594 85.0221 14.7893 83.7194 14.138C81.9049 13.254 79.6717 12.7887 77.4385 12.7887C71.2042 12.7887 64.5977 16.5107 64.5977 25.3504C64.5977 34.2367 71.2972 38.0052 77.5781 38.0052C79.7647 38.0052 81.9049 37.5399 83.6728 36.7025Z"/>
<path class="logo__letter logo__letter_2" d="M110.585 37.9121C112.352 37.9121 113.841 36.4234 113.841 34.6554V16.6968C113.841 14.1845 112.027 12.7422 110.119 12.7422C108.956 12.7422 107.747 13.3005 106.909 14.4171L96.4875 28.2815V16.1385C96.4875 14.3241 94.9987 12.8818 93.2308 12.8818C91.4628 12.8818 89.974 14.3241 89.974 16.1385V34.0506C89.974 36.5629 91.742 37.9587 93.6495 37.9587C94.8126 37.9587 96.0223 37.4469 96.9062 36.3303L107.328 22.7916V34.6554C107.328 36.4234 108.817 37.9121 110.585 37.9121Z"/>
<path class="logo__letter logo__letter_3" d="M119.334 13.2075C117.706 13.2075 116.357 14.5567 116.357 16.1851C116.357 17.8134 117.706 19.1161 119.334 19.1161H123.475V34.6089C123.475 36.3768 124.964 37.9121 126.778 37.9121C128.546 37.9121 130.035 36.3768 130.035 34.6089V19.1161H134.176C135.804 19.1161 137.153 17.8134 137.153 16.1851C137.153 14.5567 135.804 13.2075 134.176 13.2075H119.334Z"/>
<path class="logo__letter logo__letter_4" d="M155.359 36.2373C156.243 37.2608 157.313 37.726 158.29 37.726C159.965 37.726 161.361 36.4234 161.361 34.8415C161.361 34.1436 161.082 33.3992 160.477 32.7014L153.917 24.9782L160.012 18.2321C160.849 17.3017 161.221 16.3712 161.221 15.5802C161.221 14.0914 160.012 12.9748 158.476 12.9748C157.546 12.9748 156.522 13.3936 155.592 14.3241C153.173 16.7434 150.428 19.7209 149.823 20.8375C149.032 19.5814 146.38 16.5573 144.193 14.231C143.356 13.347 142.379 12.9748 141.495 12.9748C139.866 12.9748 138.471 14.231 138.471 15.8129C138.471 16.5573 138.796 17.3947 139.587 18.2321L146.194 25.3039L139.587 32.4687C138.657 33.4458 138.285 34.3763 138.285 35.1672C138.285 36.7025 139.634 37.726 141.169 37.726C142.146 37.726 143.216 37.3073 144.054 36.3768C146.706 33.3992 149.032 30.5612 149.776 29.2585C150.521 30.4217 152.149 32.5618 155.359 36.2373Z"/>
</svg>