<svg width="56" height="56" viewBox="0 0 56 56" fill="none" xmlns="http://www.w3.org/2000/svg">
<path d="M19.8333 36.7288C19.8333 34.4342 21.4867 32.4796 23.7338 32.118C26.56 31.6631 29.4398 31.6631 32.266 32.118C34.5131 32.4796 36.1666 34.4342 36.1666 36.7288V37.2368C36.1666 38.5788 35.0878 39.6667 33.757 39.6667H22.2429C20.9121 39.6667 19.8333 38.5788 19.8333 37.2368V36.7288Z" stroke="white" stroke-width="3"/>
<path d="M32.7638 21.1373C32.7638 23.7904 30.6309 25.9412 27.9999 25.9412C25.3689 25.9412 23.236 23.7904 23.236 21.1373C23.236 18.4842 25.3689 16.3334 27.9999 16.3334C30.6309 16.3334 32.7638 18.4842 32.7638 21.1373Z" stroke="white" stroke-width="3"/>
<path d="M49 16.3333C49 11.1787 43.7767 7 37.3333 7M7 37.3333C7 43.7767 11.1787 49 16.3333 49M16.3333 7C11.1787 7 7 11.1787 7 16.3333M37.3333 49C43.7767 49 49 43.7767 49 37.3333" stroke="white" stroke-width="3" stroke-linecap="round"/>
</svg>
